<svg width="334" height="339" viewBox="0 0 334 339" fill="none" xmlns="http://www.w3.org/2000/svg">
<g clip-path="url(#clip0_444_3159)">
<path opacity="0.2" d="M286.747 203.242L273.528 211.039L271.336 212.327L254.161 222.429C254.161 222.429 254.116 222.429 254.116 222.452L241.167 230.068L240.354 230.565L229.054 237.21L228.941 237.277L226.184 238.905L225.552 239.266L224.738 239.741L203.112 252.487L193.666 258.047L178.209 267.132L173.554 269.889L171.587 271.042L166.096 267.833L140.922 253.052L125.736 244.148L109.691 234.746H109.669L86.4378 221.118L75.3421 214.61L75.071 214.451L64.608 208.327L63.6589 207.762L60.6082 205.954L56.3823 203.49L66.4611 197.569L71.2745 194.744L71.5908 194.563L72.2462 194.179L75.0258 192.552L75.1388 192.484L87.2965 185.365L87.9745 184.958L99.9289 177.952L108.064 173.161L120.154 166.065L122.889 164.483L126.301 162.471L169.124 137.34L169.26 137.25L171.316 136.052L212.151 159.827L230.953 170.766L271.403 194.315L286.747 203.242Z" fill="black"/>
<path d="M271.403 59.9805V207.174L266.929 209.751L238.048 226.475L235.698 227.853L230.952 230.588L225.958 233.481L225.755 233.594L221.416 236.102L220.738 236.509L215.563 239.515L188.649 255.086L173.553 263.832L173.034 264.126L169.26 266.318L169.192 266.341L169.124 266.386V120.096L169.192 120.051L211.97 94.9201L230.817 83.8461L271.403 59.9805Z" fill="url(#paint0_linear_444_3159)"/>
<path d="M169.26 120.096V266.386L169.192 266.341L169.124 266.318L166.096 264.556L140.922 250.024L126.301 241.571L125.736 241.232L112.087 233.345L112.041 233.322L108.064 231.04L88.6523 219.808L77.4888 213.367L77.2402 213.208L66.4609 206.993V59.7996L108.29 84.3432L126.662 95.1008L169.192 120.051L169.26 120.096Z" fill="url(#paint1_linear_444_3159)"/>
<path d="M271.403 59.9804L230.84 83.846L212.015 94.9426L169.26 120.096L169.192 120.051L126.662 95.1008L108.29 84.3432L66.4609 59.7996L109.126 34.7588L115.386 31.0976L117.442 29.8772L118.934 29.0184L127.611 23.9108L134.074 20.1366L168.378 0L202.366 19.7976L210.772 24.6792L217.62 28.6794L218.953 29.4478L223.156 31.8886L228.806 35.1882L271.403 59.9804Z" fill="url(#paint2_linear_444_3159)"/>
<path d="M212.151 95.1008V241.368L230.953 231.085V83.9138L212.151 95.1008Z" fill="url(#paint3_linear_444_3159)"/>
<path d="M230.953 83.9137L212.287 95.1007L212.219 95.0555L212.016 94.9425H211.97L200.626 88.2755L169.418 70.0373L169.328 69.9695L165.283 67.5965H165.215L165.125 67.5287L163.497 66.5569L162.955 66.2405L155.566 61.9239H155.543L155.136 61.6753H155.114L151.204 59.3701L147.159 57.0197L119.635 40.9059L109.126 34.7587L108.652 34.4875L115.522 30.4421L116.516 29.8545L118.053 28.9505L127.092 23.6169L127.612 23.9107L166.887 46.7141L169.735 48.3639L169.915 48.4769L185.169 57.3361H185.192L185.779 57.6977H185.847L188.107 59.0537L222.253 78.8739L230.795 83.8459H230.817L230.93 83.9137H230.953Z" fill="url(#paint4_linear_444_3159)"/>
<path d="M126.301 95.3946V241.662L108.064 231.65V84.4788L126.301 95.3946Z" fill="url(#paint5_linear_444_3159)"/>
<path d="M228.964 35.0977L228.806 35.1881L216.241 42.5557L191.655 56.9745L188.92 58.6017C188.649 58.7599 188.378 58.8955 188.129 59.0537C188.129 59.0537 188.107 59.0763 188.084 59.0763L176.062 66.1275L175.429 66.5117L169.441 70.0373L168.785 70.3989L126.685 95.1007L126.256 95.3493L126.188 95.3945L108.087 84.4787L108.313 84.3431L115.77 80.0039L150.458 59.7995L151.227 59.3701L152.741 58.4887L152.786 58.4435L154.323 57.5621L168.808 49.1323L169.463 48.7481L169.938 48.4769L210.795 24.6791L211.112 24.4983L218.004 28.5889L219.315 29.3799L223.179 31.6625L228.987 35.0977H228.964Z" fill="url(#paint6_linear_444_3159)"/>
<path d="M223.156 31.6625V31.8885C222.862 35.4819 219.834 39.8889 216.241 42.5557C215.789 42.8947 215.337 43.2111 214.885 43.4823C207.021 48.2509 198.05 53.4037 191.745 56.9745C190.728 57.5621 189.779 58.1045 188.92 58.6017C188.649 58.7599 188.378 58.8955 188.129 59.0537C188.129 59.0537 188.106 59.0763 188.084 59.0763C185.327 60.6357 183.632 61.5849 183.632 61.5849L183.135 61.3137L178.706 58.7599L178.502 58.6469L178.457 58.6017L169.892 53.6749L169.101 53.2229L167.022 52.0251C167.022 52.0251 167.746 51.0307 168.988 49.3583C169.147 49.1549 169.305 48.9515 169.463 48.7481C169.576 48.6125 169.666 48.4995 169.757 48.3639C175.135 41.4257 187.542 26.5549 199.293 20.9049C200.309 20.4077 201.349 20.0461 202.388 19.7975C206.931 18.6449 211.563 19.6167 215.36 21.6959C215.699 21.8767 216.015 22.0575 216.309 22.2609C216.67 22.4869 217.032 22.7129 217.371 22.9615C218.049 23.4361 218.659 23.9559 219.247 24.4757C219.608 24.8373 219.97 25.1763 220.309 25.5379C220.783 26.0803 221.235 26.6453 221.642 27.2329C221.868 27.5493 222.071 27.8657 222.252 28.2047C222.433 28.5211 222.614 28.8375 222.772 29.1765C223.111 29.9223 223.247 30.7585 223.179 31.6625H223.156Z" fill="url(#paint7_linear_444_3159)"/>
<path d="M222.75 29.1765C221.597 29.1313 220.445 29.1991 219.292 29.3799C219.179 29.4025 219.066 29.4025 218.953 29.4477C217.62 29.6737 216.286 30.1031 214.976 30.7359C203.722 36.1599 191.903 49.9685 186.231 57.2231H186.208C186.095 57.3813 185.96 57.5621 185.847 57.7203C184.965 58.8503 184.242 59.7769 183.723 60.4775C183.61 60.6583 183.497 60.7939 183.384 60.9521C183.271 61.0877 183.18 61.2007 183.112 61.3137L178.683 58.7599L178.48 58.6469L178.435 58.6017L169.87 53.6749L169.079 53.2229L167 52.0251C167 52.0251 167.723 51.0307 168.966 49.3583C169.124 49.1549 169.282 48.9515 169.441 48.7481C169.554 48.6125 169.644 48.4995 169.734 48.3639C175.113 41.4257 187.519 26.5549 199.27 20.9049C200.287 20.4077 201.327 20.0461 202.366 19.7975C206.908 18.6449 211.541 19.6167 215.337 21.6959C215.676 21.8767 215.993 22.0575 216.286 22.2609C216.648 22.4869 217.01 22.7129 217.349 22.9615C218.027 23.4361 218.637 23.9559 219.224 24.4757C219.586 24.8373 219.947 25.1763 220.286 25.5379C220.761 26.0803 221.213 26.6453 221.62 27.2329C221.846 27.5493 222.049 27.8657 222.23 28.2047C222.411 28.5211 222.591 28.8375 222.75 29.1765Z" fill="url(#paint8_linear_444_3159)"/>
<path style="mix-blend-mode:color-dodge" d="M222.75 29.1764C221.597 29.1312 220.445 29.199 219.292 29.3798C219.179 29.4024 219.066 29.4024 218.953 29.4476C217.62 29.6736 216.287 30.103 214.976 30.7358C203.722 36.1598 191.903 49.9684 186.231 57.223H186.208C186.095 57.3812 185.96 57.562 185.847 57.7202C184.966 58.8502 184.242 59.7768 183.723 60.4774C184.152 59.8446 184.853 58.8954 185.779 57.6976C185.869 57.5394 185.982 57.3812 186.118 57.223C191.655 49.9006 203.903 34.8716 214.501 29.7866C215.518 29.2894 216.58 28.9278 217.62 28.6792C217.733 28.634 217.846 28.6114 217.981 28.5888C219.405 28.2724 220.829 28.1594 222.23 28.2046C222.411 28.521 222.591 28.8374 222.75 29.1764Z" fill="url(#paint9_radial_444_3159)"/>
<path d="M171.497 52.7484L170.571 53.2682L169.87 53.675L160.673 58.986H160.65L159.814 59.4832H159.791L155.565 61.924H155.543L155.385 62.0144L154.888 62.3082C154.888 62.3082 153.193 61.359 150.436 59.7996C149.035 59.0086 147.362 58.0594 145.487 56.9746C139.272 53.449 130.956 48.6578 123.612 44.2056C122.211 43.3468 120.832 42.2168 119.634 40.906C116.832 37.9002 114.911 34.0582 115.386 31.0976C115.409 30.8716 115.454 30.6456 115.522 30.4422C115.589 30.2388 115.657 30.058 115.748 29.8772C115.77 29.832 115.793 29.8094 115.793 29.7642C115.928 29.4704 116.087 29.1992 116.267 28.9054C116.448 28.5664 116.652 28.25 116.877 27.9336C117.284 27.346 117.736 26.781 118.211 26.2386C121.894 22.2384 127.951 19.436 134.075 20.1366C135.792 20.3174 137.532 20.792 139.227 21.6056C140.199 22.0802 141.17 22.6 142.142 23.1876C143.611 24.069 145.08 25.0634 146.526 26.1482C147.972 27.233 149.419 28.4082 150.82 29.6286C152.244 30.8716 153.622 32.1372 154.955 33.448L156.266 34.7588C160.492 39.0076 164.198 43.3694 166.887 46.7142C167.61 47.5956 168.243 48.4092 168.785 49.1324C168.853 49.2228 168.921 49.2906 168.966 49.3584C170.571 51.4376 171.497 52.7484 171.497 52.7484Z" fill="url(#paint10_linear_444_3159)"/>
<path d="M171.497 52.7484L170.571 53.2682L169.87 53.675L160.673 58.986H160.65L159.814 59.4832H159.791L155.565 61.924H155.543L155.385 62.0144C155.385 62.0144 155.294 61.9014 155.136 61.6754H155.113C155.023 61.4946 154.887 61.359 154.774 61.1782C154.277 60.5002 153.577 59.5736 152.718 58.4888C152.424 58.1046 152.108 57.7204 151.769 57.291C145.916 49.9008 134.459 36.7024 123.521 31.4366C121.51 30.4648 119.476 29.9902 117.442 29.8772C117.126 29.8546 116.832 29.8546 116.516 29.8546C116.245 29.8546 115.996 29.8772 115.748 29.8772C115.77 29.832 115.793 29.8094 115.793 29.7642C115.951 29.493 116.109 29.1992 116.267 28.928C116.245 28.9054 116.267 28.9054 116.267 28.9054C116.448 28.5664 116.651 28.25 116.877 27.9336C117.284 27.346 117.736 26.781 118.211 26.2386C121.894 22.2384 127.951 19.436 134.075 20.1366C135.792 20.3174 137.532 20.792 139.227 21.6056C140.199 22.0802 141.17 22.6 142.142 23.1876C143.611 24.069 145.08 25.0634 146.526 26.1482C147.972 27.233 149.419 28.3856 150.82 29.6286C152.243 30.849 153.622 32.1372 154.955 33.448C155.407 33.8774 155.859 34.3294 156.266 34.7588C160.492 39.0076 164.198 43.3694 166.887 46.7142C167.61 47.5956 168.243 48.4092 168.785 49.1324C168.853 49.2228 168.921 49.2906 168.966 49.3584C170.571 51.4376 171.497 52.7484 171.497 52.7484Z" fill="url(#paint11_linear_444_3159)"/>
<path style="mix-blend-mode:color-dodge" d="M152.763 58.4435C153.667 59.6187 154.345 60.5679 154.774 61.1781C154.277 60.5001 153.577 59.5735 152.718 58.4887C152.424 58.1045 152.108 57.7203 151.769 57.2909C145.916 49.9007 134.459 36.7023 123.521 31.4365C121.51 30.4647 119.476 29.9901 117.442 29.8771C117.126 29.8545 116.832 29.8545 116.516 29.8545C116.245 29.8545 115.996 29.8771 115.748 29.8771C115.77 29.8319 115.793 29.8093 115.793 29.7641C115.951 29.4929 116.109 29.1991 116.267 28.9279C116.855 28.9053 117.442 28.9053 118.053 28.9505C118.346 28.9505 118.64 28.9731 118.934 29.0183C120.629 29.2217 122.346 29.6737 123.996 30.4873C134.301 35.4593 146.187 49.8103 151.905 57.3135C152.221 57.7203 152.515 58.0819 152.763 58.4435Z" fill="url(#paint12_radial_444_3159)"/>
<path d="M179.723 58.082C179.723 58.082 193.349 55.3926 204.242 58.4662C218.14 62.3986 227.314 75.8908 220.422 81.2696C213.53 86.6258 206.434 91.6204 198.863 87.4846C191.293 83.3714 164.492 67.9356 164.492 67.9356L179.723 58.0594V58.082Z" fill="url(#paint13_linear_444_3159)"/>
<path d="M189.779 67.9355C178.887 64.8619 165.26 67.5513 165.26 67.5513L164.582 67.9807L164.492 67.9355L179.723 58.0593C179.723 58.0593 193.349 55.3699 204.242 58.4435C218.14 62.3759 227.314 75.8681 220.422 81.2469C216.264 84.4787 212.038 87.5523 207.677 88.6145C210.682 82.4221 202.095 71.4159 189.779 67.9355Z" fill="url(#paint14_linear_444_3159)"/>
<path style="mix-blend-mode:color-dodge" d="M165.825 67.3706L165.915 67.4158C165.915 67.4158 180.22 64.2744 191.112 67.3706C203.428 70.851 212.016 81.8572 209.01 88.0496C209.778 87.8688 208.874 88.3434 207.677 88.6146C210.682 82.4222 202.095 71.416 189.779 67.9356C178.887 64.862 165.26 67.5514 165.26 67.5514L164.582 67.9808L164.492 67.9356L165.825 67.3706Z" fill="url(#paint15_radial_444_3159)"/>
<path d="M178.48 58.647L174.028 54.8502C171.407 52.6128 167.542 52.6806 164.989 55.0084L160.266 59.3476L168.876 65.5852L178.48 58.6696V58.647Z" fill="url(#paint16_linear_444_3159)"/>
<path d="M157.644 58.082C157.644 58.082 144.018 55.3926 133.125 58.4662C119.227 62.3986 110.053 75.8908 116.945 81.2696C123.838 86.6258 130.933 91.6204 138.504 87.4846C146.074 83.3714 172.875 67.9356 172.875 67.9356L157.644 58.0594V58.082Z" fill="url(#paint17_linear_444_3159)"/>
<path d="M147.588 67.9355C158.48 64.8619 172.107 67.5513 172.107 67.5513L172.785 67.9807L172.875 67.9355L157.644 58.0593C157.644 58.0593 144.018 55.3699 133.125 58.4435C119.227 62.3759 110.053 75.8681 116.945 81.2469C121.103 84.4787 125.329 87.5523 129.69 88.6145C126.685 82.4221 135.272 71.4159 147.588 67.9355Z" fill="url(#paint18_linear_444_3159)"/>
<path style="mix-blend-mode:color-dodge" d="M171.542 67.3706L171.452 67.4158C171.452 67.4158 157.147 64.2744 146.255 67.3706C133.939 70.851 125.352 81.8572 128.357 88.0496C127.589 87.8688 128.493 88.3434 129.69 88.6146C126.685 82.4222 135.272 71.416 147.588 67.9356C158.48 64.862 172.107 67.5514 172.107 67.5514L172.785 67.9808L172.875 67.9356L171.542 67.3706Z" fill="url(#paint19_radial_444_3159)"/>
<path opacity="0.2" d="M185.96 271.652L166.096 283.336L158.729 287.675L92.9912 326.367L0 271.833L8.11272 267.064L41.7161 247.357L56.4275 238.724L67.7943 232.034L86.4378 221.118L88.6524 219.808L92.7652 217.389L108.064 226.294L116.086 230.972H116.109L125.736 236.577L126.301 236.916L140.922 245.436L166.096 260.081L169.124 261.844L169.26 261.934L173.034 264.126L173.553 264.42L178.209 267.132L185.711 271.516L185.96 271.652Z" fill="black"/>
<path d="M91.0024 245.707V322.638L173.553 274.816V197.162L91.0024 245.707Z" fill="url(#paint20_linear_444_3159)"/>
<path d="M91.093 245.707V322.638L91.0478 322.615L91.0026 322.592L56.4275 302.614L41.7162 294.094L8.11279 274.68V197.027L41.897 216.847L56.7213 225.548L67.7944 232.034L91.0478 245.685L91.093 245.707Z" fill="url(#paint21_linear_444_3159)"/>
<path d="M173.554 197.162L169.26 199.694L169.124 199.761L140.831 216.44L126.301 224.983L125.6 225.39L116.109 230.972L112.087 233.345L111.635 233.616L109.691 234.746L91.093 245.707L91.0478 245.685L67.7944 232.034L56.7213 225.548L41.897 216.847L8.11279 197.027L42.5523 176.822L47.6369 173.839L49.2639 172.89L50.4842 172.167L57.4897 168.054L62.7098 165.003L66.4611 162.788L90.3925 148.753L108.064 159.036L117.827 164.731L120.154 166.065L124.629 168.686L126.301 169.658L130.143 171.896L131.205 172.506L134.617 174.495L139.204 177.161L169.124 194.586L169.26 194.654L173.554 197.162Z" fill="url(#paint22_linear_444_3159)"/>
<path d="M125.736 225.525V302.433L140.922 294.116V216.485L125.736 225.525Z" fill="url(#paint23_linear_444_3159)"/>
<path d="M140.922 216.485L126.301 225.254L125.849 225.525H125.781L125.6 225.39H125.577L116.425 220.011L108.064 215.129L91.2509 205.298L91.1605 205.253L87.8838 203.332H87.8612L87.7708 203.264L86.4601 202.496H86.4375L86.0082 202.225L80.0649 198.744L79.7711 198.586C79.7711 198.586 79.7485 198.541 79.7033 198.518L76.5396 196.688L73.2854 194.767L72.2685 194.179L66.4834 190.812L51.1167 181.817L42.5746 176.822L42.1904 176.596L47.7722 173.297L48.5179 172.845H48.5405L49.7834 172.122L57.0826 167.805L57.5119 168.054L66.4834 173.252L87.3188 185.365L89.2397 186.473L91.5221 187.806L91.6577 187.874L103.951 195.015L104.448 195.309H104.516L106.369 196.417H106.392L108.087 197.411L126.323 207.988L133.939 212.417L140.831 216.418H140.854L140.944 216.485H140.922Z" fill="url(#paint24_linear_444_3159)"/>
<path d="M56.4277 225.774V302.659L41.7163 294.568V216.96L56.4277 225.774Z" fill="url(#paint25_linear_444_3159)"/>
<path d="M139.318 177.094L56.3147 225.774L41.7163 216.96L124.877 168.528L139.318 177.094Z" fill="url(#paint26_linear_444_3159)"/>
<path d="M102.686 198.473L89.2852 190.744C89.2852 190.744 102.799 171.67 115.341 165.613C122.866 161.997 131.544 166.585 134.255 172.189C135.882 175.557 132.154 181.275 127.951 183.828C116.719 190.631 102.686 198.451 102.686 198.451V198.473Z" fill="url(#paint27_linear_444_3159)"/>
<path d="M128.018 173.568C130.075 172.574 132.199 172.212 134.278 172.302C131.612 166.652 122.889 161.997 115.318 165.635C102.776 171.67 89.2627 190.767 89.2627 190.767L102.257 198.247C104.29 195.467 116.516 179.082 127.996 173.568H128.018Z" fill="url(#paint28_linear_444_3159)"/>
<path style="mix-blend-mode:color-dodge" d="M133.871 171.534C131.792 171.444 129.668 171.805 127.634 172.8C116.155 178.314 102.279 198.247 102.279 198.247C104.313 195.467 116.539 179.082 128.019 173.568C130.075 172.574 132.199 172.212 134.278 172.302C134.165 172.031 134.007 171.783 133.849 171.534H133.871Z" fill="url(#paint29_radial_444_3159)"/>
<path d="M92.9233 191.332L92.1775 191.761H92.1549L91.59 192.1L84.1552 196.371L84.11 196.417L83.4999 196.778L80.065 198.744L79.5452 199.061C79.5452 199.061 78.1667 198.292 75.9521 197.027C74.7996 196.394 73.4437 195.603 71.907 194.744C71.8166 194.699 71.7263 194.631 71.6133 194.563C70.054 193.682 68.3139 192.688 66.4835 191.625C62.574 189.365 58.2352 186.834 54.2805 184.439C53.1506 183.761 52.0659 182.857 51.1168 181.817C48.8118 179.376 47.2525 176.235 47.6593 173.839C47.6819 173.658 47.7271 173.455 47.7723 173.297C47.8175 173.139 47.8852 173.003 47.953 172.867C47.953 172.845 47.9756 172.822 47.9756 172.8C48.0886 172.574 48.2242 172.348 48.3598 172.099C48.4954 171.828 48.6536 171.579 48.8344 171.308C49.0378 171.037 49.2185 170.766 49.4445 170.494C49.6479 170.268 49.8739 170.02 50.0773 169.794C51.0264 168.777 52.1337 167.895 53.3992 167.127C53.8059 166.901 54.2353 166.675 54.6647 166.449C57.1053 165.274 59.9074 164.664 62.7322 165.003C63.9977 165.138 65.2632 165.477 66.4835 166.02C66.6191 166.065 66.7547 166.133 66.8903 166.2C74.7092 169.975 82.9349 178.834 87.9969 184.958C88.4488 185.478 88.8556 185.998 89.2398 186.473C89.8047 187.196 90.3245 187.829 90.7539 188.416C90.8216 188.484 90.8668 188.552 90.912 188.62C92.2227 190.292 92.9459 191.332 92.9459 191.332H92.9233Z" fill="url(#paint30_linear_444_3159)"/>
<path d="M92.9231 191.332L92.1774 191.761H92.1548L91.5898 192.1L84.1551 196.371L83.4771 196.756L80.0422 198.744L79.9066 198.812C79.9066 198.812 79.8614 198.744 79.7484 198.586C79.7258 198.564 79.7258 198.541 79.6806 198.518C79.6354 198.428 79.5451 198.292 79.4095 198.134C79.0027 197.592 78.4378 196.846 77.7598 195.965C77.5338 195.671 77.2626 195.332 76.9915 194.993C76.4039 194.247 75.7486 193.433 75.0254 192.552C72.6752 189.75 69.7149 186.427 66.4608 183.286C62.6191 179.58 58.348 176.144 54.19 174.133C52.5855 173.365 50.9133 172.958 49.2636 172.89C49.015 172.845 48.7664 172.845 48.5179 172.845H48.4953C48.2919 172.845 48.1337 172.867 47.9303 172.867H47.9077C47.9077 172.867 47.9303 172.822 47.9529 172.8C48.0659 172.574 48.2015 172.348 48.3371 172.099C48.4727 171.828 48.6309 171.579 48.8116 171.308C49.015 171.037 49.1958 170.766 49.4218 170.494C49.6252 170.268 49.8511 170.02 50.0545 169.794C51.0037 168.777 52.111 167.895 53.3765 167.127C53.7832 166.901 54.2126 166.675 54.6419 166.449C57.0825 165.274 59.8847 164.664 62.7095 165.003C63.975 165.138 65.2405 165.477 66.4608 166.02C66.5963 166.065 66.7319 166.133 66.8675 166.2C74.6865 169.975 82.9122 178.834 87.9742 184.958C88.4261 185.478 88.8329 185.998 89.217 186.473C89.782 187.196 90.3018 187.829 90.7311 188.416C90.7989 188.484 90.8441 188.552 90.8893 188.62C92.2 190.292 92.9231 191.332 92.9231 191.332Z" fill="url(#paint31_linear_444_3159)"/>
<path style="mix-blend-mode:color-dodge" d="M79.4095 198.134C79.0027 197.592 78.4378 196.846 77.7598 195.965C77.5338 195.671 77.2626 195.332 76.9915 194.993C76.4039 194.247 75.7486 193.433 75.0254 192.552C72.6752 189.75 69.7149 186.427 66.4608 183.286C62.6191 179.58 58.348 176.144 54.19 174.133C52.5855 173.365 50.9133 172.958 49.2636 172.89C49.015 172.845 48.7664 172.845 48.5179 172.845H48.4953C48.2919 172.845 48.1337 172.867 47.9303 172.867H47.9077C47.9077 172.867 47.9303 172.822 47.9529 172.8C48.0659 172.574 48.2015 172.348 48.3371 172.099C48.8116 172.099 49.2862 172.099 49.7608 172.122C49.9867 172.122 50.2353 172.144 50.4839 172.167C51.8398 172.325 53.2183 172.732 54.5742 173.365C58.4836 175.24 62.6417 178.789 66.4608 182.631C69.7601 185.975 72.7882 189.546 75.1384 192.484C75.8616 193.388 76.5169 194.247 77.1045 194.993C77.353 195.332 77.579 195.648 77.805 195.942C78.5281 196.891 79.0705 197.637 79.4095 198.134Z" fill="url(#paint32_radial_444_3159)"/>
<path d="M99.5448 195.626C99.5448 195.626 110.55 193.456 119.341 195.942C130.549 199.106 137.984 210.022 132.402 214.338C126.821 218.655 121.103 222.7 115.002 219.356C108.9 216.033 87.2515 203.581 87.2515 203.581L99.5448 195.626Z" fill="url(#paint33_linear_444_3159)"/>
<path d="M107.658 203.603C98.8669 201.117 87.8616 203.287 87.8616 203.287L87.3193 203.649L87.2515 203.603L99.5448 195.648C99.5448 195.648 110.55 193.479 119.341 195.965C130.549 199.129 137.984 210.044 132.402 214.361C129.035 216.983 125.623 219.469 122.12 220.305C124.561 215.31 117.601 206.428 107.68 203.626L107.658 203.603Z" fill="url(#paint34_linear_444_3159)"/>
<path style="mix-blend-mode:color-dodge" d="M88.3362 203.129L88.404 203.174C88.404 203.174 99.9516 200.643 108.742 203.129C118.685 205.931 125.623 214.813 123.182 219.808C123.793 219.672 123.069 220.034 122.098 220.282C124.538 215.288 117.578 206.406 107.658 203.603C98.8669 201.117 87.8616 203.287 87.8616 203.287L87.3193 203.649L87.2515 203.603L88.3362 203.129Z" fill="url(#paint35_radial_444_3159)"/>
<path d="M98.5502 196.1L94.9571 193.027C92.8329 191.219 89.7144 191.264 87.658 193.162L83.8389 196.665L90.7991 201.682L98.5502 196.1Z" fill="url(#paint36_linear_444_3159)"/>
<path d="M81.7372 195.626C81.7372 195.626 70.7319 193.456 61.9413 195.942C50.7326 199.106 43.2978 210.022 48.8796 214.338C54.4613 218.655 60.1786 222.7 66.2801 219.356C72.3816 216.033 94.0306 203.581 94.0306 203.581L81.7372 195.626Z" fill="url(#paint37_linear_444_3159)"/>
<path d="M73.6245 203.603C82.4152 201.117 93.4204 203.287 93.4204 203.287L93.9628 203.649L94.0306 203.603L81.7372 195.648C81.7372 195.648 70.7319 193.479 61.9413 195.965C50.7326 199.129 43.2978 210.044 48.8796 214.361C52.2467 216.983 55.659 219.469 59.1617 220.305C56.7437 215.31 63.6813 206.428 73.6019 203.626L73.6245 203.603Z" fill="url(#paint38_linear_444_3159)"/>
<path style="mix-blend-mode:color-dodge" d="M92.9461 203.129L92.8783 203.174C92.8783 203.174 81.3307 200.643 72.54 203.129C62.5968 205.931 55.6592 214.813 58.0998 219.808C57.4897 219.672 58.2128 220.034 59.1845 220.282C56.7665 215.288 63.7042 206.406 73.6247 203.603C82.4154 201.117 93.4207 203.287 93.4207 203.287L93.963 203.649L94.0308 203.603L92.9461 203.129Z" fill="url(#paint39_radial_444_3159)"/>
<path opacity="0.2" d="M334 287.336L246.229 339L158.729 287.675L158.436 287.517L166.096 283.02L185.711 271.516L197.824 264.397L200.965 262.567H200.988L201.169 262.431L206.231 259.471L217.552 252.826L225.823 247.99L233.258 243.628L233.732 243.334H233.755L236.987 241.436L238.975 240.261L244.557 236.984L244.828 236.825L245.935 236.17L246.026 236.125L253.325 240.374L255.856 241.843L256.828 242.408L256.873 242.43L283.652 258.024L289.369 261.346L289.392 261.369L289.482 261.414V261.437L291.471 262.589L322.294 280.511L334 287.336Z" fill="black"/>
<path d="M322.294 242.001V290.32L291.471 308.174L279.29 315.225L244.444 335.407L244.354 335.452V287.811L244.399 287.788L277.008 268.624L289.369 261.346L291.358 260.171L322.294 242.001Z" fill="url(#paint40_linear_444_3159)"/>
<path d="M244.444 287.811V335.452L166.096 290.207V241.865L244.444 287.811Z" fill="url(#paint41_linear_444_3159)"/>
<path d="M322.294 242.001L291.38 260.194L289.391 261.369L277.03 268.624L244.444 287.811H244.399L211.97 268.759L201.168 262.431L197.982 260.578L193.666 258.047L188.649 255.086L173.554 246.25L169.26 243.718L169.124 243.651L166.096 241.865L169.124 240.08L169.26 240.012L173.554 237.481L198.615 222.791L203.406 219.988L204.942 219.062H204.965L206.072 218.406L212.151 214.836L212.716 214.519L217.642 211.626L230.953 203.807L243.788 196.281L266.929 209.751L269.709 211.378L271.336 212.327L276.081 215.084L281.324 218.135L282.318 218.723L285.527 220.576L289.843 223.107L322.294 242.001Z" fill="url(#paint42_linear_444_3159)"/>
<path d="M277.144 268.759V316.4L291.471 308.535V260.239L277.144 268.759Z" fill="url(#paint43_linear_444_3159)"/>
<path d="M198.253 222.565L277.256 268.759L291.471 260.239L212.309 214.271L198.253 222.565Z" fill="url(#paint44_linear_444_3159)"/>
<path d="M211.722 268.985V316.603L197.824 308.987V260.668L211.722 268.985Z" fill="url(#paint45_linear_444_3159)"/>
<path d="M289.957 223.039L289.844 223.107L280.285 228.712L261.506 239.718L259.54 240.871C259.291 241.029 259.065 241.142 258.839 241.278C258.839 241.278 258.794 241.3 258.771 241.323L256.873 242.43L249.664 246.679L249.167 246.973L244.58 249.662L244.105 249.933L211.971 268.759L211.677 268.963H211.609L200.988 262.567H200.965L197.824 260.668L197.982 260.578L203.655 257.256L230.117 241.865L230.682 241.526L231.834 240.848H231.902L233.055 240.148L244.105 233.729L244.602 233.413L244.919 233.232L276.059 215.084L276.307 214.949L281.55 218.067L282.567 218.655L285.505 220.418L289.934 223.039H289.957Z" fill="url(#paint46_linear_444_3159)"/>
<path d="M285.527 220.418C285.527 220.418 285.527 220.508 285.527 220.576C285.324 223.311 283.019 226.655 280.285 228.712C279.946 228.983 279.584 229.209 279.222 229.435C273.234 233.074 266.387 237.006 261.573 239.718C260.85 240.148 260.172 240.532 259.54 240.871C259.291 241.029 259.065 241.142 258.839 241.278C258.839 241.278 258.794 241.3 258.771 241.323C258.003 241.752 257.348 242.114 256.828 242.408C255.901 242.927 255.381 243.221 255.381 243.221L254.997 243.018L251.608 241.052L251.495 240.984H251.472L244.919 237.21L244.557 236.984L244.331 236.871L242.727 235.944C242.727 235.944 243.269 235.176 244.241 233.91C244.286 233.842 244.354 233.752 244.421 233.684C244.489 233.594 244.557 233.503 244.625 233.413C244.693 233.322 244.76 233.232 244.828 233.142C246.704 230.701 249.732 226.972 253.348 223.243L254.161 222.429C254.545 222.022 254.952 221.616 255.336 221.231C256.353 220.26 257.415 219.265 258.477 218.339C259.201 217.706 259.924 217.096 260.647 216.531C261.393 215.943 262.116 215.401 262.861 214.881C263.991 214.09 265.099 213.389 266.229 212.779C266.59 212.576 266.974 212.395 267.336 212.214C268.127 211.852 268.918 211.559 269.709 211.378C270.974 211.039 272.262 210.948 273.528 211.039C274.951 211.129 276.353 211.446 277.641 211.92C278.16 212.124 278.658 212.35 279.132 212.598C279.584 212.824 280.013 213.073 280.443 213.344C280.85 213.593 281.256 213.886 281.618 214.18C281.799 214.316 281.979 214.451 282.138 214.587C282.748 215.107 283.313 215.672 283.787 216.259C283.787 216.282 283.81 216.305 283.833 216.327C284.171 216.757 284.488 217.209 284.782 217.683C284.782 217.728 284.804 217.751 284.827 217.796C284.985 218 285.075 218.226 285.188 218.429C285.211 218.452 285.211 218.497 285.211 218.519C285.482 219.084 285.595 219.74 285.527 220.418Z" fill="url(#paint47_linear_444_3159)"/>
<path d="M285.211 218.519C284.33 218.474 283.471 218.519 282.59 218.655C282.499 218.678 282.409 218.7 282.318 218.723C281.302 218.904 280.285 219.22 279.29 219.717C270.726 223.83 261.709 234.362 257.37 239.899C257.257 240.035 257.167 240.148 257.076 240.261C256.602 240.871 256.195 241.391 255.856 241.843C255.72 242.046 255.585 242.227 255.472 242.385C255.404 242.453 255.359 242.543 255.291 242.611C255.156 242.792 255.088 242.905 255.043 242.973C255.02 242.995 254.997 242.995 254.997 242.995L251.608 241.052L251.495 240.984H251.472L244.919 237.21L244.557 236.984L244.331 236.871L242.727 235.944C242.727 235.944 243.269 235.176 244.241 233.91C244.286 233.842 244.354 233.752 244.421 233.684C244.489 233.594 244.534 233.503 244.602 233.413C244.602 233.413 244.738 233.232 244.783 233.142H244.806C246.681 230.701 249.709 226.972 253.325 223.243C253.574 222.994 253.822 222.723 254.093 222.452C254.093 222.429 254.116 222.429 254.139 222.429C254.523 222.022 254.93 221.616 255.314 221.231C256.331 220.237 257.393 219.265 258.455 218.339C259.178 217.706 259.901 217.096 260.624 216.531C261.37 215.943 262.093 215.401 262.839 214.881C263.969 214.09 265.076 213.389 266.206 212.779C266.568 212.576 266.952 212.395 267.313 212.214C268.104 211.852 268.895 211.559 269.686 211.378C270.952 211.039 272.24 210.948 273.505 211.039C274.929 211.129 276.33 211.446 277.618 211.92C278.138 212.124 278.635 212.35 279.11 212.598C279.561 212.824 279.991 213.073 280.42 213.344C280.827 213.593 281.234 213.886 281.595 214.18C281.776 214.316 281.957 214.451 282.115 214.587C282.725 215.129 283.268 215.672 283.765 216.259C283.765 216.282 283.787 216.305 283.81 216.327C284.149 216.757 284.465 217.209 284.759 217.683C284.759 217.728 284.782 217.751 284.804 217.796C284.94 218.022 285.075 218.271 285.188 218.519H285.211Z" fill="url(#paint48_linear_444_3159)"/>
<path style="mix-blend-mode:color-dodge" d="M284.827 217.796C282.884 217.728 280.872 218.067 278.929 218.994C268.104 224.215 254.998 243.018 254.998 243.018C256.918 240.396 268.466 224.938 279.291 219.717C281.234 218.791 283.245 218.429 285.211 218.519C285.098 218.271 284.963 218.022 284.804 217.796H284.827Z" fill="url(#paint49_radial_444_3159)"/>
<path d="M233.506 243.764L246.161 236.487C246.161 236.487 233.416 218.474 221.574 212.757C214.456 209.344 206.276 213.683 203.722 218.972C202.185 222.158 205.711 227.56 209.688 229.955C220.286 236.374 233.529 243.741 233.529 243.741L233.506 243.764Z" fill="url(#paint50_linear_444_3159)"/>
<path d="M209.597 220.26C207.654 219.333 205.643 218.971 203.677 219.062C206.185 213.728 214.433 209.321 221.574 212.756C233.416 218.452 246.161 236.486 246.161 236.486L233.89 243.56C231.97 240.939 220.422 225.48 209.597 220.26Z" fill="url(#paint51_linear_444_3159)"/>
<path style="mix-blend-mode:color-dodge" d="M204.061 218.316C206.004 218.248 208.016 218.587 209.959 219.514C220.784 224.734 233.89 243.538 233.89 243.538C231.97 240.916 220.422 225.458 209.597 220.237C207.654 219.31 205.643 218.949 203.677 219.039C203.79 218.791 203.925 218.542 204.084 218.316H204.061Z" fill="url(#paint52_radial_444_3159)"/>
<path d="M252.421 240.532C252.421 240.532 262.816 238.475 271.11 240.826C281.686 243.809 288.691 254.114 283.448 258.205C278.183 262.296 272.782 266.092 267.019 262.951C261.257 259.81 240.806 248.058 240.806 248.058L252.421 240.532Z" fill="url(#paint53_linear_444_3159)"/>
<path d="M260.082 248.058C251.788 245.707 241.393 247.764 241.393 247.764L240.873 248.103L240.806 248.058L252.421 240.532C252.421 240.532 262.816 238.475 271.11 240.826C281.686 243.809 288.691 254.114 283.448 258.205C280.285 260.668 277.053 263.019 273.731 263.81C276.014 259.086 269.483 250.702 260.082 248.058Z" fill="url(#paint54_linear_444_3159)"/>
<path style="mix-blend-mode:color-dodge" d="M241.845 247.628L241.913 247.673C241.913 247.673 252.805 245.278 261.121 247.628C270.499 250.272 277.053 258.657 274.77 263.38C275.358 263.245 274.68 263.606 273.754 263.81C276.036 259.086 269.505 250.702 260.104 248.058C251.811 245.707 241.416 247.764 241.416 247.764L240.896 248.103L240.828 248.058L241.845 247.628Z" fill="url(#paint55_radial_444_3159)"/>
<path d="M251.495 240.984L248.105 238.091C246.116 236.373 243.156 236.441 241.212 238.204L237.597 241.504L244.15 246.25L251.472 240.984H251.495Z" fill="url(#paint56_linear_444_3159)"/>
<path d="M235.608 240.532C235.608 240.532 225.213 238.475 216.919 240.826C206.344 243.809 199.338 254.114 204.581 258.205C209.846 262.296 215.247 266.092 221.01 262.951C226.772 259.81 247.201 248.058 247.201 248.058L235.586 240.532H235.608Z" fill="url(#paint57_linear_444_3159)"/>
<path d="M227.947 248.058C236.241 245.707 246.636 247.764 246.636 247.764L247.156 248.103L247.224 248.058L235.608 240.532C235.608 240.532 225.213 238.475 216.919 240.826C206.344 243.809 199.338 254.114 204.581 258.205C207.745 260.668 210.976 263.019 214.298 263.81C212.016 259.086 218.547 250.702 227.947 248.058Z" fill="url(#paint58_linear_444_3159)"/>
<path style="mix-blend-mode:color-dodge" d="M246.184 247.628L246.116 247.673C246.116 247.673 235.224 245.278 226.908 247.628C217.53 250.272 210.976 258.657 213.259 263.38C212.671 263.245 213.349 263.606 214.276 263.81C211.993 259.086 218.524 250.702 227.925 248.058C236.218 245.707 246.614 247.764 246.614 247.764L247.133 248.103L247.201 248.058L246.184 247.628Z" fill="url(#paint59_radial_444_3159)"/>
<g style="mix-blend-mode:hue">
<path d="M334 287.336L246.229 339L158.729 287.675L92.9912 326.367L0 271.833L8.11272 267.064V197.027L42.5522 176.822L42.1681 176.596L47.7498 173.297C47.795 173.139 47.8628 173.003 47.9306 172.867H47.908C47.908 172.867 47.9306 172.822 47.9532 172.8C48.0662 172.574 48.2018 172.348 48.3373 172.099C48.4729 171.828 48.6311 171.579 48.8119 171.308C49.0153 171.037 49.1961 170.766 49.4221 170.494C49.6254 170.268 49.8514 170.02 50.0548 169.794C51.0039 168.777 52.1112 167.895 53.3767 167.127C53.7835 166.901 54.2129 166.675 54.6422 166.449C57.0828 165.274 59.885 164.664 62.7097 165.003L66.461 162.788V59.7996L109.126 34.7588L108.652 34.4876L115.522 30.4422C115.589 30.2388 115.657 30.058 115.747 29.8772C115.77 29.832 115.793 29.8094 115.793 29.7642C115.928 29.4704 116.086 29.1992 116.267 28.9054C116.448 28.5664 116.651 28.25 116.877 27.9336C117.284 27.346 117.736 26.781 118.211 26.2386C121.894 22.2384 127.95 19.436 134.075 20.1366L168.378 0L202.366 19.7976C206.908 18.645 211.541 19.6168 215.337 21.696C215.676 21.8768 215.993 22.0576 216.286 22.261C216.648 22.487 217.01 22.713 217.349 22.9616C218.027 23.4362 218.637 23.956 219.224 24.4758C219.586 24.8374 219.947 25.1764 220.286 25.538C220.761 26.0804 221.213 26.6454 221.62 27.233C221.846 27.5494 222.049 27.8658 222.23 28.2048C222.411 28.5212 222.591 28.8376 222.75 29.1766C223.088 29.9224 223.224 30.7586 223.156 31.6626L228.964 35.0978L228.806 35.1882L271.403 59.9804V194.315L286.747 203.242L273.527 211.039C274.951 211.129 276.352 211.446 277.64 211.92C278.16 212.124 278.657 212.35 279.132 212.598C279.584 212.824 280.013 213.073 280.442 213.344C280.849 213.593 281.256 213.886 281.618 214.18C281.798 214.316 281.979 214.451 282.137 214.587C282.747 215.107 283.312 215.672 283.787 216.259C283.787 216.282 283.81 216.305 283.832 216.327C284.171 216.757 284.488 217.209 284.781 217.683C284.781 217.728 284.804 217.751 284.827 217.796C284.985 218 285.075 218.226 285.188 218.429C285.211 218.452 285.211 218.497 285.211 218.519C285.482 219.084 285.595 219.74 285.527 220.418L289.956 223.039L289.843 223.107L322.294 242.001V280.511L334 287.336Z" fill="#97B8FF"/>
</g>
</g>
<defs>
<linearGradient id="paint0_linear_444_3159" x1="198.298" y1="169.771" x2="487.287" y2="83.2492" gradientUnits="userSpaceOnUse">
<stop offset="0.04" stop-color="#9F19AB"/>
<stop offset="0.24" stop-color="#AE24B0"/>
<stop offset="0.65" stop-color="#D643BF"/>
<stop offset="1" stop-color="#FF63CE"/>
</linearGradient>
<linearGradient id="paint1_linear_444_3159" x1="-68.7435" y1="204.937" x2="312.557" y2="119.455" gradientUnits="userSpaceOnUse">
<stop offset="0.04" stop-color="#9F19AB"/>
<stop offset="0.24" stop-color="#AE24B0"/>
<stop offset="0.65" stop-color="#D643BF"/>
<stop offset="1" stop-color="#FF63CE"/>
</linearGradient>
<linearGradient id="paint2_linear_444_3159" x1="275.855" y1="-143.894" x2="160.725" y2="75.4987" gradientUnits="userSpaceOnUse">
<stop offset="0.04" stop-color="#9F19AB"/>
<stop offset="0.24" stop-color="#AE24B0"/>
<stop offset="0.65" stop-color="#D643BF"/>
<stop offset="1" stop-color="#FF63CE"/>
</linearGradient>
<linearGradient id="paint3_linear_444_3159" x1="212.738" y1="165.296" x2="328.872" y2="130.52" gradientUnits="userSpaceOnUse">
<stop offset="0.04" stop-color="#138BBD"/>
<stop offset="0.23" stop-color="#169AC6"/>
<stop offset="0.59" stop-color="#1EC2DF"/>
<stop offset="1" stop-color="#2AF6FF"/>
</linearGradient>
<linearGradient id="paint4_linear_444_3159" x1="192.287" y1="16.3623" x2="166.522" y2="65.4704" gradientUnits="userSpaceOnUse">
<stop offset="0.04" stop-color="#138BBD"/>
<stop offset="0.23" stop-color="#169AC6"/>
<stop offset="0.59" stop-color="#1EC2DF"/>
<stop offset="1" stop-color="#2AF6FF"/>
</linearGradient>
<linearGradient id="paint5_linear_444_3159" x1="198.728" y1="181.342" x2="32.02" y2="143.991" gradientUnits="userSpaceOnUse">
<stop offset="0.04" stop-color="#138BBD"/>
<stop offset="0.23" stop-color="#169AC6"/>
<stop offset="0.59" stop-color="#1EC2DF"/>
<stop offset="1" stop-color="#2AF6FF"/>
</linearGradient>
<linearGradient id="paint6_linear_444_3159" x1="265.776" y1="-125.611" x2="154.67" y2="86.1434" gradientUnits="userSpaceOnUse">
<stop offset="0.04" stop-color="#138BBD"/>
<stop offset="0.23" stop-color="#169AC6"/>
<stop offset="0.59" stop-color="#1EC2DF"/>
<stop offset="1" stop-color="#2AF6FF"/>
</linearGradient>
<linearGradient id="paint7_linear_444_3159" x1="190.457" y1="35.0977" x2="216.311" y2="64.9728" gradientUnits="userSpaceOnUse">
<stop offset="0.04" stop-color="#138BBD"/>
<stop offset="0.23" stop-color="#169AC6"/>
<stop offset="0.59" stop-color="#1EC2DF"/>
<stop offset="1" stop-color="#2AF6FF"/>
</linearGradient>
<linearGradient id="paint8_linear_444_3159" x1="180.83" y1="59.6865" x2="216.833" y2="10.7604" gradientUnits="userSpaceOnUse">
<stop offset="0.04" stop-color="#1BB0D4"/>
<stop offset="0.2" stop-color="#1EBFDD"/>
<stop offset="0.53" stop-color="#26E7F6"/>
<stop offset="0.63" stop-color="#2AF6FF"/>
<stop offset="0.87" stop-color="#1BB0D4"/>
</linearGradient>
<radialGradient id="paint9_radial_444_3159" cx="0" cy="0" r="1" gradientUnits="userSpaceOnUse" gradientTransform="translate(211.812 34.4422) scale(17.9203 17.9218)">
<stop stop-color="white"/>
<stop offset="1"/>
</radialGradient>
<linearGradient id="paint10_linear_444_3159" x1="131.837" y1="30.5552" x2="180.812" y2="87.1415" gradientUnits="userSpaceOnUse">
<stop offset="0.04" stop-color="#138BBD"/>
<stop offset="0.23" stop-color="#169AC6"/>
<stop offset="0.59" stop-color="#1EC2DF"/>
<stop offset="1" stop-color="#2AF6FF"/>
</linearGradient>
<linearGradient id="paint11_linear_444_3159" x1="138.3" y1="48.3188" x2="154.279" y2="26.624" gradientUnits="userSpaceOnUse">
<stop offset="0.04" stop-color="#1BB0D4"/>
<stop offset="0.2" stop-color="#1EBFDD"/>
<stop offset="0.53" stop-color="#26E7F6"/>
<stop offset="0.63" stop-color="#2AF6FF"/>
<stop offset="0.87" stop-color="#1BB0D4"/>
</linearGradient>
<radialGradient id="paint12_radial_444_3159" cx="0" cy="0" r="1" gradientUnits="userSpaceOnUse" gradientTransform="translate(143.837 35.1429) scale(17.9203 17.9218)">
<stop stop-color="white"/>
<stop offset="1"/>
</radialGradient>
<linearGradient id="paint13_linear_444_3159" x1="196.332" y1="58.8956" x2="189.823" y2="91.8236" gradientUnits="userSpaceOnUse">
<stop offset="0.04" stop-color="#138BBD"/>
<stop offset="0.23" stop-color="#169AC6"/>
<stop offset="0.59" stop-color="#1EC2DF"/>
<stop offset="1" stop-color="#2AF6FF"/>
</linearGradient>
<linearGradient id="paint14_linear_444_3159" x1="184.039" y1="56.4321" x2="206.73" y2="89.8331" gradientUnits="userSpaceOnUse">
<stop offset="0.04" stop-color="#1BB0D4"/>
<stop offset="0.2" stop-color="#1EBFDD"/>
<stop offset="0.53" stop-color="#26E7F6"/>
<stop offset="0.63" stop-color="#2AF6FF"/>
<stop offset="0.87" stop-color="#1BB0D4"/>
</linearGradient>
<radialGradient id="paint15_radial_444_3159" cx="0" cy="0" r="1" gradientUnits="userSpaceOnUse" gradientTransform="translate(132.275 72.6646) rotate(180) scale(17.9201 17.9216)">
<stop stop-color="white"/>
<stop offset="1"/>
</radialGradient>
<linearGradient id="paint16_linear_444_3159" x1="169.373" y1="71.5064" x2="169.373" y2="53.6298" gradientUnits="userSpaceOnUse">
<stop offset="0.04" stop-color="#138BBD"/>
<stop offset="0.23" stop-color="#169AC6"/>
<stop offset="0.59" stop-color="#1EC2DF"/>
<stop offset="1" stop-color="#2AF6FF"/>
</linearGradient>
<linearGradient id="paint17_linear_444_3159" x1="141.057" y1="58.8956" x2="147.567" y2="91.8236" gradientUnits="userSpaceOnUse">
<stop offset="0.04" stop-color="#138BBD"/>
<stop offset="0.23" stop-color="#169AC6"/>
<stop offset="0.59" stop-color="#1EC2DF"/>
<stop offset="1" stop-color="#2AF6FF"/>
</linearGradient>
<linearGradient id="paint18_linear_444_3159" x1="153.351" y1="56.4321" x2="130.66" y2="89.8331" gradientUnits="userSpaceOnUse">
<stop offset="0.04" stop-color="#1BB0D4"/>
<stop offset="0.2" stop-color="#1EBFDD"/>
<stop offset="0.53" stop-color="#26E7F6"/>
<stop offset="0.63" stop-color="#2AF6FF"/>
<stop offset="0.87" stop-color="#1BB0D4"/>
</linearGradient>
<radialGradient id="paint19_radial_444_3159" cx="0" cy="0" r="1" gradientUnits="userSpaceOnUse" gradientTransform="translate(142.532 72.6646) scale(17.9201 17.9216)">
<stop stop-color="white"/>
<stop offset="1"/>
</radialGradient>
<linearGradient id="paint20_linear_444_3159" x1="116.199" y1="264.714" x2="327.766" y2="201.376" gradientUnits="userSpaceOnUse">
<stop offset="0.04" stop-color="#6B24D6"/>
<stop offset="0.29" stop-color="#7733DC"/>
<stop offset="0.79" stop-color="#965BEC"/>
<stop offset="1" stop-color="#A56EF4"/>
</linearGradient>
<linearGradient id="paint21_linear_444_3159" x1="-86.9574" y1="290.455" x2="192.064" y2="227.908" gradientUnits="userSpaceOnUse">
<stop offset="0.04" stop-color="#6B24D6"/>
<stop offset="0.29" stop-color="#7733DC"/>
<stop offset="0.79" stop-color="#965BEC"/>
<stop offset="1" stop-color="#A56EF4"/>
</linearGradient>
<linearGradient id="paint22_linear_444_3159" x1="177.147" y1="32.5666" x2="84.211" y2="209.699" gradientUnits="userSpaceOnUse">
<stop offset="0.04" stop-color="#6B24D6"/>
<stop offset="0.29" stop-color="#7733DC"/>
<stop offset="0.79" stop-color="#965BEC"/>
<stop offset="1" stop-color="#A56EF4"/>
</linearGradient>
<linearGradient id="paint23_linear_444_3159" x1="127.86" y1="261.098" x2="199.881" y2="239.541" gradientUnits="userSpaceOnUse">
<stop offset="0.04" stop-color="#FFA98C"/>
<stop offset="0.32" stop-color="#FEB892"/>
<stop offset="0.86" stop-color="#FEE0A3"/>
<stop offset="1" stop-color="#FEECA8"/>
</linearGradient>
<linearGradient id="paint24_linear_444_3159" x1="109.714" y1="161.929" x2="88.8754" y2="201.613" gradientUnits="userSpaceOnUse">
<stop offset="0.04" stop-color="#FFA98C"/>
<stop offset="0.32" stop-color="#FEB892"/>
<stop offset="0.86" stop-color="#FEE0A3"/>
<stop offset="1" stop-color="#FEECA8"/>
</linearGradient>
<linearGradient id="paint25_linear_444_3159" x1="100.81" y1="271.403" x2="-4.97223" y2="247.7" gradientUnits="userSpaceOnUse">
<stop offset="0.04" stop-color="#FFA98C"/>
<stop offset="0.32" stop-color="#FEB892"/>
<stop offset="0.86" stop-color="#FEE0A3"/>
<stop offset="1" stop-color="#FEECA8"/>
</linearGradient>
<linearGradient id="paint26_linear_444_3159" x1="72.6757" y1="163.014" x2="93.1297" y2="201.997" gradientUnits="userSpaceOnUse">
<stop offset="0.04" stop-color="#FFA98C"/>
<stop offset="0.32" stop-color="#FEB892"/>
<stop offset="0.86" stop-color="#FEE0A3"/>
<stop offset="1" stop-color="#FEECA8"/>
</linearGradient>
<linearGradient id="paint27_linear_444_3159" x1="108.222" y1="177.094" x2="129.105" y2="201.206" gradientUnits="userSpaceOnUse">
<stop offset="0.04" stop-color="#FFA98C"/>
<stop offset="0.32" stop-color="#FEB892"/>
<stop offset="0.86" stop-color="#FEE0A3"/>
<stop offset="1" stop-color="#FEECA8"/>
</linearGradient>
<linearGradient id="paint28_linear_444_3159" x1="100.449" y1="196.936" x2="129.513" y2="157.457" gradientUnits="userSpaceOnUse">
<stop offset="0.04" stop-color="#F7AA90"/>
<stop offset="0.23" stop-color="#F9B996"/>
<stop offset="0.61" stop-color="#FEE1A6"/>
<stop offset="0.63" stop-color="#FFE4A7"/>
<stop offset="0.87" stop-color="#F7AA90"/>
</linearGradient>
<radialGradient id="paint29_radial_444_3159" cx="0" cy="0" r="1" gradientUnits="userSpaceOnUse" gradientTransform="translate(125.305 176.995) scale(14.8775 14.8787)">
<stop stop-color="white"/>
<stop offset="1"/>
</radialGradient>
<linearGradient id="paint30_linear_444_3159" x1="60.9244" y1="173.41" x2="100.452" y2="219.081" gradientUnits="userSpaceOnUse">
<stop offset="0.04" stop-color="#FFA98C"/>
<stop offset="0.32" stop-color="#FEB892"/>
<stop offset="0.86" stop-color="#FEE0A3"/>
<stop offset="1" stop-color="#FEECA8"/>
</linearGradient>
<linearGradient id="paint31_linear_444_3159" x1="66.1218" y1="187.761" x2="79.0267" y2="170.247" gradientUnits="userSpaceOnUse">
<stop offset="0.04" stop-color="#F7AA90"/>
<stop offset="0.23" stop-color="#F9B996"/>
<stop offset="0.61" stop-color="#FEE1A6"/>
<stop offset="0.63" stop-color="#FFE4A7"/>
<stop offset="0.87" stop-color="#F7AA90"/>
</linearGradient>
<radialGradient id="paint32_radial_444_3159" cx="0" cy="0" r="1" gradientUnits="userSpaceOnUse" gradientTransform="translate(70.5736 177.116) scale(14.4628 14.464)">
<stop stop-color="white"/>
<stop offset="1"/>
</radialGradient>
<linearGradient id="paint33_linear_444_3159" x1="112.968" y1="196.281" x2="107.702" y2="222.881" gradientUnits="userSpaceOnUse">
<stop offset="0.04" stop-color="#FFA98C"/>
<stop offset="0.32" stop-color="#FEB892"/>
<stop offset="0.86" stop-color="#FEE0A3"/>
<stop offset="1" stop-color="#FEECA8"/>
</linearGradient>
<linearGradient id="paint34_linear_444_3159" x1="103.025" y1="194.315" x2="121.354" y2="221.275" gradientUnits="userSpaceOnUse">
<stop offset="0.04" stop-color="#F7AA90"/>
<stop offset="0.23" stop-color="#F9B996"/>
<stop offset="0.61" stop-color="#FEE1A6"/>
<stop offset="0.63" stop-color="#FFE4A7"/>
<stop offset="0.87" stop-color="#F7AA90"/>
</linearGradient>
<radialGradient id="paint35_radial_444_3159" cx="0" cy="0" r="1" gradientUnits="userSpaceOnUse" gradientTransform="translate(48.8051 207.96) rotate(180) scale(14.4748 14.476)">
<stop stop-color="white"/>
<stop offset="1"/>
</radialGradient>
<linearGradient id="paint36_linear_444_3159" x1="91.2059" y1="206.474" x2="91.2059" y2="192.055" gradientUnits="userSpaceOnUse">
<stop offset="0.04" stop-color="#FFA98C"/>
<stop offset="0.32" stop-color="#FEB892"/>
<stop offset="0.86" stop-color="#FEE0A3"/>
<stop offset="1" stop-color="#FEECA8"/>
</linearGradient>
<linearGradient id="paint37_linear_444_3159" x1="68.3365" y1="196.281" x2="73.6027" y2="222.881" gradientUnits="userSpaceOnUse">
<stop offset="0.04" stop-color="#FFA98C"/>
<stop offset="0.32" stop-color="#FEB892"/>
<stop offset="0.86" stop-color="#FEE0A3"/>
<stop offset="1" stop-color="#FEECA8"/>
</linearGradient>
<linearGradient id="paint38_linear_444_3159" x1="78.2571" y1="194.315" x2="59.9505" y2="221.275" gradientUnits="userSpaceOnUse">
<stop offset="0.04" stop-color="#F7AA90"/>
<stop offset="0.23" stop-color="#F9B996"/>
<stop offset="0.61" stop-color="#FEE1A6"/>
<stop offset="0.63" stop-color="#FFE4A7"/>
<stop offset="0.87" stop-color="#F7AA90"/>
</linearGradient>
<radialGradient id="paint39_radial_444_3159" cx="0" cy="0" r="1" gradientUnits="userSpaceOnUse" gradientTransform="translate(69.2183 207.96) scale(14.4748 14.476)">
<stop stop-color="white"/>
<stop offset="1"/>
</radialGradient>
<linearGradient id="paint40_linear_444_3159" x1="269.144" y1="292.964" x2="455.694" y2="237.128" gradientUnits="userSpaceOnUse">
<stop offset="0.04" stop-color="#138BBD"/>
<stop offset="0.23" stop-color="#169AC6"/>
<stop offset="0.59" stop-color="#1EC2DF"/>
<stop offset="1" stop-color="#2AF6FF"/>
</linearGradient>
<linearGradient id="paint41_linear_444_3159" x1="84.8786" y1="315.654" x2="330.861" y2="260.519" gradientUnits="userSpaceOnUse">
<stop offset="0.04" stop-color="#138BBD"/>
<stop offset="0.23" stop-color="#169AC6"/>
<stop offset="0.59" stop-color="#1EC2DF"/>
<stop offset="1" stop-color="#2AF6FF"/>
</linearGradient>
<linearGradient id="paint42_linear_444_3159" x1="325.684" y1="86.6032" x2="237.947" y2="253.815" gradientUnits="userSpaceOnUse">
<stop offset="0.04" stop-color="#138BBD"/>
<stop offset="0.23" stop-color="#169AC6"/>
<stop offset="0.59" stop-color="#1EC2DF"/>
<stop offset="1" stop-color="#2AF6FF"/>
</linearGradient>
<linearGradient id="paint43_linear_444_3159" x1="280.149" y1="289.551" x2="334.973" y2="273.146" gradientUnits="userSpaceOnUse">
<stop offset="0.04" stop-color="#9F19AB"/>
<stop offset="0.24" stop-color="#AE24B0"/>
<stop offset="0.65" stop-color="#D643BF"/>
<stop offset="1" stop-color="#FF63CE"/>
</linearGradient>
<linearGradient id="paint44_linear_444_3159" x1="262.003" y1="208.734" x2="242.362" y2="246.18" gradientUnits="userSpaceOnUse">
<stop offset="0.04" stop-color="#9F19AB"/>
<stop offset="0.24" stop-color="#AE24B0"/>
<stop offset="0.65" stop-color="#D643BF"/>
<stop offset="1" stop-color="#FF63CE"/>
</linearGradient>
<linearGradient id="paint45_linear_444_3159" x1="245.077" y1="297.687" x2="162.661" y2="279.203" gradientUnits="userSpaceOnUse">
<stop offset="0.04" stop-color="#9F19AB"/>
<stop offset="0.24" stop-color="#AE24B0"/>
<stop offset="0.65" stop-color="#D643BF"/>
<stop offset="1" stop-color="#FF63CE"/>
</linearGradient>
<linearGradient id="paint46_linear_444_3159" x1="318.024" y1="100.547" x2="233.337" y2="261.928" gradientUnits="userSpaceOnUse">
<stop offset="0.04" stop-color="#9F19AB"/>
<stop offset="0.24" stop-color="#AE24B0"/>
<stop offset="0.65" stop-color="#D643BF"/>
<stop offset="1" stop-color="#FF63CE"/>
</linearGradient>
<linearGradient id="paint47_linear_444_3159" x1="260.602" y1="223.039" x2="280.309" y2="245.819" gradientUnits="userSpaceOnUse">
<stop offset="0.04" stop-color="#9F19AB"/>
<stop offset="0.24" stop-color="#AE24B0"/>
<stop offset="0.65" stop-color="#D643BF"/>
<stop offset="1" stop-color="#FF63CE"/>
</linearGradient>
<linearGradient id="paint48_linear_444_3159" x1="253.257" y1="241.775" x2="280.717" y2="204.487" gradientUnits="userSpaceOnUse">
<stop offset="0.04" stop-color="#9F19AB"/>
<stop offset="0.16" stop-color="#AE24B0"/>
<stop offset="0.41" stop-color="#D643BF"/>
<stop offset="0.63" stop-color="#FF63CE"/>
<stop offset="0.87" stop-color="#DC48C1"/>
</linearGradient>
<radialGradient id="paint49_radial_444_3159" cx="0" cy="0" r="1" gradientUnits="userSpaceOnUse" gradientTransform="translate(277.414 223.152) scale(14.0497 14.0509)">
<stop stop-color="white"/>
<stop offset="1"/>
</radialGradient>
<linearGradient id="paint50_linear_444_3159" x1="228.286" y1="223.582" x2="208.579" y2="246.339" gradientUnits="userSpaceOnUse">
<stop offset="0.04" stop-color="#9F19AB"/>
<stop offset="0.24" stop-color="#AE24B0"/>
<stop offset="0.65" stop-color="#D643BF"/>
<stop offset="1" stop-color="#FF63CE"/>
</linearGradient>
<linearGradient id="paint51_linear_444_3159" x1="235.63" y1="242.295" x2="208.193" y2="205.029" gradientUnits="userSpaceOnUse">
<stop offset="0.04" stop-color="#9F19AB"/>
<stop offset="0.16" stop-color="#AE24B0"/>
<stop offset="0.41" stop-color="#D643BF"/>
<stop offset="0.63" stop-color="#FF63CE"/>
<stop offset="0.87" stop-color="#DC48C1"/>
</linearGradient>
<radialGradient id="paint52_radial_444_3159" cx="0" cy="0" r="1" gradientUnits="userSpaceOnUse" gradientTransform="translate(149.591 223.689) rotate(180) scale(14.0497 14.0509)">
<stop stop-color="white"/>
<stop offset="1"/>
</radialGradient>
<linearGradient id="paint53_linear_444_3159" x1="265.076" y1="241.165" x2="260.126" y2="266.273" gradientUnits="userSpaceOnUse">
<stop offset="0.04" stop-color="#9F19AB"/>
<stop offset="0.24" stop-color="#AE24B0"/>
<stop offset="0.65" stop-color="#D643BF"/>
<stop offset="1" stop-color="#FF63CE"/>
</linearGradient>
<linearGradient id="paint54_linear_444_3159" x1="255.72" y1="239.289" x2="273.01" y2="264.758" gradientUnits="userSpaceOnUse">
<stop offset="0.04" stop-color="#9F19AB"/>
<stop offset="0.16" stop-color="#AE24B0"/>
<stop offset="0.41" stop-color="#D643BF"/>
<stop offset="0.63" stop-color="#FF63CE"/>
<stop offset="0.87" stop-color="#DC48C1"/>
</linearGradient>
<radialGradient id="paint55_radial_444_3159" cx="0" cy="0" r="1" gradientUnits="userSpaceOnUse" gradientTransform="translate(201.674 252.395) rotate(180) scale(13.6694 13.6705)">
<stop stop-color="white"/>
<stop offset="1"/>
</radialGradient>
<linearGradient id="paint56_linear_444_3159" x1="244.557" y1="250.792" x2="244.557" y2="237.164" gradientUnits="userSpaceOnUse">
<stop offset="0.04" stop-color="#9F19AB"/>
<stop offset="0.24" stop-color="#AE24B0"/>
<stop offset="0.65" stop-color="#D643BF"/>
<stop offset="1" stop-color="#FF63CE"/>
</linearGradient>
<linearGradient id="paint57_linear_444_3159" x1="222.953" y1="241.165" x2="227.926" y2="266.273" gradientUnits="userSpaceOnUse">
<stop offset="0.04" stop-color="#9F19AB"/>
<stop offset="0.24" stop-color="#AE24B0"/>
<stop offset="0.65" stop-color="#D643BF"/>
<stop offset="1" stop-color="#FF63CE"/>
</linearGradient>
<linearGradient id="paint58_linear_444_3159" x1="232.331" y1="239.289" x2="215.019" y2="264.758" gradientUnits="userSpaceOnUse">
<stop offset="0.04" stop-color="#9F19AB"/>
<stop offset="0.16" stop-color="#AE24B0"/>
<stop offset="0.41" stop-color="#D643BF"/>
<stop offset="0.63" stop-color="#FF63CE"/>
<stop offset="0.87" stop-color="#DC48C1"/>
</linearGradient>
<radialGradient id="paint59_radial_444_3159" cx="0" cy="0" r="1" gradientUnits="userSpaceOnUse" gradientTransform="translate(224.459 252.395) scale(13.6694 13.6705)">
<stop stop-color="white"/>
<stop offset="1"/>
</radialGradient>
<clipPath id="clip0_444_3159">
<rect width="334" height="339" fill="white"/>
</clipPath>
</defs>
</svg>
